PathFileType	4	(X/Y/Z)	/Users/visionmauri/4_1_1_f_Sports2D/4_1_1_f_Sports2D_m_person00.trc
DataRate	CameraRate	NumFrames	NumMarkers	Units	OrigDataRate	OrigDataStartFrame	OrigNumFrames
30.0	30.0	9	22	m	30.0	221	355
Frame#	Time	Hip			RHip			RKnee			RAnkle			RBigToe			RSmallToe			RHeel			LHip			LKnee			LAnkle			LBigToe			LSmallToe			LHeel			Neck			Head			Nose			RShoulder			RElbow			RWrist			LShoulder			LElbow			LWrist			
		X1	Y1	Z1	X2	Y2	Z2	X3	Y3	Z3	X4	Y4	Z4	X5	Y5	Z5	X6	Y6	Z6	X7	Y7	Z7	X8	Y8	Z8	X9	Y9	Z9	X10	Y10	Z10	X11	Y11	Z11	X12	Y12	Z12	X13	Y13	Z13	X14	Y14	Z14	X15	Y15	Z15	X16	Y16	Z16	X17	Y17	Z17	X18	Y18	Z18	X19	Y19	Z19	X20	Y20	Z20	X21	Y21	Z21	X22	Y22	Z22
221	7.387476459510358	1.3985786365591435	0.8763103848807275	0.0301	1.3152082987506661	0.8983306519854914	0.0301	1.188237459037019	0.6073578422475573	0.129	1.06436142872008	0.28960443138040587	0.023	1.0227894223661573	0.18967397118094362	0.2179	0.9804742908955206	0.22097568173135887	0.1804	1.068963424783507	0.23343819781897537	-0.0119	1.4832073569300297	0.8455970117753545	0.0301	1.377740392389185	0.5331665276613644	0.129	1.2618358515855816	0.22859663446518796	0.023	1.2949348043533162	0.11943027087615327	0.2179	1.3269697287651927	0.12538252437523986	0.1804	1.2217940646538858	0.1909080737306116	-0.0119	1.5280047357032207	1.3464825156928832	0.0008	1.5848312460166072	1.5745491086187304	0.0655	1.5214697538938982	1.4387651432759	0.1076	1.3628000605260264	1.3272954356087294	-0.01275	1.2038425986129058	1.159539555139239	0.0702	1.0644169205618719	1.020504185406568	0.1076	1.671896328199936	1.2547508122270723	-0.01275	1.6708566203451178	1.0225734937845181	0.0702	1.6576709737307034	0.8291482067687962	0.1076
222	7.42090395480226	1.3961713136795346	0.8770834850045658	0.0301	1.3121120601399303	0.8998074380645799	0.0301	1.185969664233444	0.6069400034898029	0.129	1.0639381004748765	0.2881151542838808	0.023	1.0229166555065883	0.18892838145717958	0.2179	0.9804141067235849	0.21958921057946784	0.1804	1.0702691827132151	0.23388075943314943	-0.0119	1.4806764072046519	0.8488362955786203	0.0301	1.3783668100438098	0.5329096417354567	0.129	1.2622174429909474	0.22850522878490187	0.023	1.295827599545184	0.11847066471194641	0.2179	1.327686283047217	0.12517226437508827	0.1804	1.221260662310624	0.19094967591096476	-0.0119	1.5197363919586055	1.3510722249564235	0.0008	1.5725829645645453	1.5805694527717191	0.0655	1.5118827569168973	1.4426012482751145	0.1076	1.3535624417202128	1.3292851480005858	-0.01275	1.1965585419985385	1.1604820276108472	0.0702	1.06200779295412	1.0204369105705726	0.1076	1.6663381526107663	1.2600207789560087	-0.01275	1.6671246646466866	1.025790529957983	0.0702	1.6579604703166924	0.8292668400285298	0.1076
223	7.454331450094163	1.3936009441324837	0.8769888281029597	0.0301	1.3099822570965387	0.9005324471759072	0.0301	1.1837079129285988	0.6063344532816551	0.129	1.0640965646798841	0.2872642018837272	0.023	1.0227173162506078	0.18861901545876597	0.2179	0.9799116746581518	0.21849329631063302	0.1804	1.0707528542004316	0.23494856197813796	-0.0119	1.4786946652895208	0.8512806970021586	0.0301	1.3799605298182334	0.5330799472107517	0.129	1.2623252234589106	0.22826504549447843	0.023	1.29686618129852	0.11666208139378528	0.2179	1.3285670715907745	0.12431302212291041	0.1804	1.219697744630503	0.19034183848386604	-0.0119	1.5114490897001798	1.35379760312418	0.0008	1.5593789084723764	1.5864126158687524	0.0655	1.4987646228917533	1.4470145120860223	0.1076	1.3447038987182338	1.3322742311672613	-0.01275	1.1895890407920158	1.1618844786625147	0.0702	1.0609785628137989	1.0207035042365193	0.1076	1.6594646467095058	1.2659563402835876	-0.01275	1.6650950836937415	1.028154958221136	0.0702	1.6577589770029677	0.8293668885073655	0.1076
224	7.487758945386064	1.3897208144550597	0.8764348111680864	0.0301	1.3061443753038229	0.9004241193045862	0.0301	1.180517418305996	0.6047521343954763	0.129	1.0638909759829807	0.2869341535695985	0.023	1.0218340103833374	0.18739906879227106	0.2179	0.979118822622306	0.21789197158366963	0.1804	1.0702405563017463	0.2352446054920918	-0.0119	1.4768862277024553	0.8520171139469186	0.0301	1.3824773738232956	0.531696100312983	0.129	1.2630354166886038	0.22832308274112753	0.023	1.2964371888091244	0.1155278337218286	0.2179	1.3287614457942323	0.12341547144164723	0.1804	1.2192182245396492	0.19059094919788128	-0.0119	1.5043080101813493	1.3569846954275273	0.0008	1.5482317234453846	1.5912657196208098	0.0655	1.4854431831890567	1.4527051836091356	0.1076	1.3360654045343854	1.335884948825569	-0.01275	1.1839616367305863	1.1635721929453486	0.0702	1.0598229520461184	1.022362159386068	0.1076	1.6531560502788836	1.271157337738029	-0.01275	1.66217749176326	1.029298068709242	0.0702	1.6570123609375527	0.8293711713299747	0.1076
225	7.521186440677966	1.3848496995796058	0.8773898038834054	0.0301	1.2994516501537312	0.9001470701870765	0.0301	1.1767602385455604	0.6022548599654343	0.129	1.0634904736537183	0.286608809830261	0.023	1.0203302796051834	0.18440852709802985	0.2179	0.9785319882848202	0.21699805084641544	0.1804	1.0700135405136377	0.23447046510164157	-0.0119	1.4753047427356711	0.852291573433705	0.0301	1.386722740613825	0.5300637746801032	0.129	1.2642613339383273	0.22976162307742792	0.023	1.2948048124914375	0.11602372381771878	0.2179	1.3281662318926564	0.12337768128034758	0.1804	1.220205310538429	0.19387786535491527	-0.0119	1.4990576136012903	1.3627562862397997	0.0008	1.5401704886886263	1.5949452508518631	0.0655	1.4767554325302563	1.4594580339575678	0.1076	1.327920369605801	1.3394321678986991	-0.01275	1.1799589919693234	1.1648908904567692	0.0702	1.0560129845084552	1.0245468285680535	0.1076	1.649388279362711	1.2750974030916413	-0.01275	1.65782102048992	1.0306669695625408	0.0702	1.6560006550769886	0.829029332650453	0.1076
226	7.5546139359698685	1.3809258249072367	0.8810720390783793	0.0301	1.2932718359602855	0.9018970115077117	0.0301	1.17330293829136	0.6011412099372098	0.129	1.0630417360342765	0.2863756060521185	0.023	1.0191570405276833	0.18162878797053775	0.2179	0.9788972088306327	0.21559568289048314	0.1804	1.0699886653781439	0.23333158575134083	-0.0119	1.4740926089646171	0.8551972261813954	0.0301	1.39322106578009	0.53163845934378	0.129	1.265405171773076	0.23409049918477184	0.023	1.2939650802341192	0.11744151938048146	0.2179	1.3278158415389965	0.12482287275278046	0.1804	1.2206146934841304	0.2007453390059918	-0.0119	1.494127946701712	1.3696835437117616	0.0008	1.5329966537959219	1.5984626384986698	0.0655	1.471594915537673	1.4663249858163452	0.1076	1.3210225715799546	1.3420513423656386	-0.01275	1.1759187415185042	1.1658106958178627	0.0702	1.0490366886896356	1.025955009969574	0.1076	1.6467301193319983	1.2784400104268099	-0.01275	1.653528090337131	1.0326972253179305	0.0702	1.6546974521678737	0.8281447915582911	0.1076
227	7.588041431261771	1.3785471821029547	0.8860225839172008	0.0301	1.2904123307891968	0.90644407144522	0.0301	1.1708608526324553	0.6025747559551948	0.129	1.0625893257078924	0.28658512788125	0.023	1.0188075024238088	0.18081766034808547	0.2179	0.9797535986607026	0.2144745207105432	0.1804	1.0696210119871814	0.23266113823250736	-0.0119	1.4727156400966441	0.8608875258494163	0.0301	1.400897729035278	0.5358366335585272	0.129	1.2660646215015572	0.2410415671765874	0.023	1.293983350634141	0.11835118935446662	0.2179	1.3280885795337862	0.12664064783528614	0.1804	1.219905569033601	0.20903512667243146	-0.0119	1.4882747037646884	1.3749885884633162	0.0008	1.525310635127537	1.6025431537263555	0.0655	1.4648209215431367	1.4724411895121166	0.1076	1.3155622098325432	1.3434924151673258	-0.01275	1.1705830696319273	1.1671332047623253	0.0702	1.0409625165191019	1.0268886980471135	0.1076	1.6428685559586302	1.280785004148253	-0.01275	1.6501455005106684	1.033689844769277	0.0702	1.6534546538527068	0.8270840646025126	0.1076
228	7.621468926553673	1.3763152543357544	0.8896600350571854	0.0301	1.288799357251225	0.90975726260823	0.0301	1.1693513269417721	0.6047432832426568	0.129	1.0623483199492347	0.28716952252955785	0.023	1.0184041938758286	0.18029576482450907	0.2179	0.9795464579923389	0.2135191283551388	0.1804	1.0693833863501252	0.23309410074182832	-0.0119	1.4702705090198764	0.8646209499527517	0.0301	1.4069913061020278	0.5383051957793872	0.129	1.2658430101446496	0.24633655878946434	0.023	1.2916513303715862	0.1167843747538464	0.2179	1.3276714056142147	0.12556914802848898	0.1804	1.2191619336250603	0.21486541416060803	-0.0119	1.4828660892637389	1.3781639525343743	0.0008	1.5189333495209207	1.6062643254830538	0.0655	1.4554436251729177	1.4774980590274143	0.1076	1.3110035594948315	1.3442453956379086	-0.01275	1.164963058506234	1.168593873276635	0.0702	1.0341816653956226	1.0271874625536261	0.1076	1.6377198251836071	1.2815057093368898	-0.01275	1.64735456974558	1.033191219435213	0.0702	1.6527107078347838	0.8267042542781963	0.1076
229	7.654896421845574	1.3736206158552746	0.8909773559462123	0.0301	1.28605452052277	0.9086756332757079	0.0301	1.1680186639232397	0.605443810853661	0.129	1.062267264214432	0.28738974035836967	0.023	1.0172252023477966	0.1782083616560922	0.2179	0.9784443121349844	0.2118216563092249	0.1804	1.069703989068101	0.2343748972088869	-0.0119	1.4669625722547008	0.8634603276257901	0.0301	1.409431512428598	0.537083403271934	0.129	1.2646165048760212	0.24496557038937897	0.023	1.2848232061923506	0.1111039516597588	0.2179	1.3249619201488525	0.11915587157061837	0.1804	1.2181181015283524	0.2147846797972482	-0.0119	1.4795475393371076	1.3802036057263256	0.0008	1.5155063063917604	1.6089269354771363	0.0655	1.4462664237338965	1.481805454545976	0.1076	1.3071004918788383	1.3447784057741778	-0.01275	1.16058448125782	1.1689289500487154	0.0702	1.0296528177665596	1.0259689241957992	0.1076	1.632790966467313	1.2813981240218908	-0.01275	1.644999983511784	1.0325368421995622	0.0702	1.6522933746254447	0.8271870924070874	0.1076
